#!OML:ASF F:\VICON\USERDATA\INSTALL\rory3\rory3.ASF
:FULLY-SPECIFIED
:DEGREES
2922
root 16.0273 17.9366 -8.60913 895.576 -84.4352 -169.168
lowerback 11.0936 2.33724 0.0769652
upperback 2.13855 3.02307 -0.0765739
thorax -3.97057 1.45952 -0.552259
lowerneck -6.77829 -2.06881 -12.519
upperneck 43.4872 -4.70789 3.30521
head 17.6311 -4.40351 2.7782
rclavicle 7.51965e-015 -1.62134e-014
rhumerus -32.9758 -13.2301 -81.5126
rradius 38.4564
rwrist 2.83114
rhand -17.1997 7.63186
rfingers 7.12502
rthumb 9.04268 -22.1543
lclavicle 7.51965e-015 -1.62134e-014
lhumerus -40.4451 10.8146 79.134
lradius 39.454
lwrist -0.861456
lhand -15.9192 24.7711
lfingers 7.12502
lthumb 10.2781 54.5
rfemur -7.16671 5.32276 22.1261
rtibia 24.8172
rfoot -20.9232 3.38556
rtoes 8.65204
lfemur -23.8334 -3.67469 -19.8122
ltibia 29.038
lfoot -11.6151 0.951536
ltoes -15.4143
2923
root 16.0944 17.9369 -8.6096 894.844 -84.2784 -168.264
lowerback 11.0845 2.32244 0.217881
upperback 2.19281 3.01788 -0.069299
thorax -3.90206 1.455 -0.620926
lowerneck -6.87102 -1.99326 -12.4348
upperneck 43.6139 -4.61487 3.29265
head 17.7142 -4.36074 2.77204
rclavicle 5.66133e-014 1.54058e-015
rhumerus -32.5045 -12.9342 -81.6257
rradius 38.4184
rwrist 2.69301
rhand -17.443 7.63509
rfingers 7.12502
rthumb 8.80786 -22.1611
lclavicle 5.66133e-014 1.54058e-015
lhumerus -40.4673 10.6455 79.3774
lradius 39.4133
lwrist -0.211779
lhand -15.9414 24.9191
lfingers 7.12502
lthumb 10.2567 54.649
rfemur -7.77304 4.95476 22.185
rtibia 25.0472
rfoot -20.747 3.90994
rtoes 8.27087
lfemur -24.2676 -2.62401 -19.9425
ltibia 28.9954
lfoot -11.7341 1.21926
ltoes -19.4326
2924
root 16.1574 17.923 -8.61534 892.635 -84.1636 -165.949
lowerback 11.1171 2.31713 0.448412
upperback 2.27326 3.03557 -0.0301865
thorax -3.82592 1.46062 -0.711041
lowerneck -6.96355 -1.90401 -12.3918
upperneck 43.7672 -4.55408 3.42671
head 17.8233 -4.32153 2.83779
rclavicle 6.16077e-015 1.1045e-014
rhumerus -31.9807 -13.2004 -81.5561
rradius 38.2344
rwrist 3.04897
rhand -17.1667 7.73866
rfingers 7.12502
rthumb 9.0745 -22.0461
lclavicle 6.16077e-015 1.1045e-014
lhumerus -40.4032 10.1362 79.7893
lradius 39.2598
lwrist -0.321309
lhand -16.167 25.6758
lfingers 7.12502
lthumb 10.039 55.4164
rfemur -8.23239 4.70458 22.472
rtibia 25.2577
rfoot -20.7086 3.96666
rtoes 6.49773
lfemur -24.758 -0.930534 -20.2758
ltibia 29.0477
lfoot -11.7662 2.35025
ltoes -29.8352
2925
root 16.2165 17.9274 -8.61937 890.987 -84.2559 -164.283
lowerback 11.2188 2.22549 0.626564
upperback 2.36414 2.93074 -0.0268002
thorax -3.77969 1.40572 -0.794392
lowerneck -7.02523 -1.7936 -12.2457
upperneck 43.8494 -4.40675 3.39225
head 17.8612 -4.24664 2.81994
rclavicle 6.30831e-015 -4.03781e-015
rhumerus -31.6123 -13.1636 -81.5123
rradius 38.2466
rwrist 3.33656
rhand -17.028 7.80381
rfingers 7.12502
rthumb 9.20828 -21.9751
lclavicle 6.30831e-015 -4.03781e-015
lhumerus -40.4303 9.64896 80.2885
lradius 39.0929
lwrist -1.10528
lhand -17.2183 26.5099
lfingers 7.12502
lthumb 9.02474 56.2968
rfemur -8.52985 4.36823 22.6508
rtibia 25.3988
rfoot -20.7264 3.97665
rtoes 5.15856
lfemur -24.9778 -0.815613 -20.0664
ltibia 29.1315
lfoot -11.8558 2.4472
ltoes -26.7405
2926
root 16.2719 17.933 -8.61906 889.441 -84.3083 -162.616
lowerback 11.2118 2.14722 0.839417
upperback 2.40518 2.8514 0.00631371
thorax -3.72539 1.36448 -0.866719
lowerneck -6.96964 -1.76503 -12.2449
upperneck 43.8208 -4.34214 3.32191
head 17.8191 -4.2275 2.79784
rclavicle 9.5603e-015 1.11816e-016
rhumerus -31.2868 -13.0759 -81.39
rradius 38.2026
rwrist 3.4537
rhand -17.1155 7.90765
rfingers 7.12502
rthumb 9.12389 -21.875
lclavicle 9.5603e-015 1.11816e-016
lhumerus -40.5363 9.51035 80.6928
lradius 38.9497
lwrist -1.64589
lhand -17.9677 26.6454
lfingers 7.12502
lthumb 8.30146 56.4623
rfemur -8.95493 3.89403 22.7549
rtibia 25.5276
rfoot -20.7457 4.44647
rtoes 5.28064
lfemur -25.2609 -0.479357 -19.953
ltibia 29.1349
lfoot -11.8855 2.74137
ltoes -26.3906
2927
root 16.3282 17.941 -8.6237 889.742 -84.4439 -162.813
lowerback 11.2337 2.09196 0.735308
upperback 2.41994 2.76683 0.0347592
thorax -3.73013 1.32343 -0.767504
lowerneck -6.76364 -1.8335 -12.3005
upperneck 43.708 -4.41682 3.20637
head 17.7072 -4.27676 2.74254
rclavicle 4.81144e-014 1.47722e-014
rhumerus -30.973 -13.245 -81.1938
rradius 38.0913
rwrist 3.58427
rhand -17.0888 8.01994
rfingers 7.12502
rthumb 9.14968 -21.7616
lclavicle 4.81144e-014 1.47722e-014
lhumerus -40.6511 9.6767 81.0198
lradius 38.8113
lwrist -1.99069
lhand -17.8911 26.6704
lfingers 7.12502
lthumb 8.37545 56.4843
rfemur -9.36706 3.42014 22.653
rtibia 25.6277
rfoot -20.6649 4.9622
rtoes 5.45486
lfemur -25.4549 -0.390892 -20.0058
ltibia 29.0609
lfoot -11.7694 3.35268
ltoes -25.8796
2928
root 16.382 17.951 -8.6336 891.652 -84.7477 -164.74
lowerback 11.3119 2.00821 0.372926
upperback 2.4982 2.61009 0.0243919
thorax -3.71016 1.24809 -0.554048
lowerneck -6.66714 -1.88255 -12.2072
upperneck 43.663 -4.4415 2.98511
head 17.649 -4.29647 2.6187
rclavicle 1.41036e-014 -5.20101e-015
rhumerus -30.6941 -13.3135 -81.0413
rradius 38.1346
rwrist 3.61848
rhand -16.9928 7.95279
rfingers 7.12502
rthumb 9.24229 -21.8247
lclavicle 1.41036e-014 -5.20101e-015
lhumerus -40.7176 9.96325 81.4013
lradius 38.7007
lwrist -2.54576
lhand -17.474 26.6098
lfingers 7.12502
lthumb 8.77799 56.4073
rfemur -9.63241 3.36079 22.4159
rtibia 25.7995
rfoot -20.5564 4.85193
rtoes 5.36183
lfemur -25.4789 -0.326247 -20.2882
ltibia 28.8921
lfoot -11.605 4.03241
ltoes -25.0891
2929
root 16.4317 17.9574 -8.64396 893.06 -85.0421 -166.196
lowerback 11.3833 1.90615 0.0707801
upperback 2.59782 2.43466 0.00778011
thorax -3.65946 1.16248 -0.377093
lowerneck -6.76235 -1.83176 -12.106
upperneck 43.8048 -4.38206 2.94519
head 17.7458 -4.26929 2.59036
rclavicle 1.38808e-014 -9.06334e-015
rhumerus -30.4823 -13.1312 -80.9775
rradius 38.2679
rwrist 3.40984
rhand -17.0292 7.77091
rfingers 7.12502
rthumb 9.20719 -22.0081
lclavicle 1.38808e-014 -9.06334e-015
lhumerus -40.7478 10.207 81.6475
lradius 38.5497
lwrist -3.23573
lhand -16.734 26.2191
lfingers 7.12502
lthumb 9.49203 55.9853
rfemur -9.83024 3.58575 22.2788
rtibia 26.0015
rfoot -20.5305 4.38922
rtoes 5.36591
lfemur -25.4473 0.287606 -20.6133
ltibia 28.6759
lfoot -11.439 4.39763
ltoes -24.5826
2930
root 16.4802 17.9604 -8.65317 892.709 -85.3218 -165.907
lowerback 11.5 1.80039 -0.0548073
upperback 2.65963 2.27832 0.0485679
thorax -3.66662 1.08488 -0.244391
lowerneck -6.90707 -1.6364 -12.3761
upperneck 44.0222 -4.23599 3.45246
head 17.9203 -4.20769 2.90236
rclavicle 3.41661e-015 9.13167e-015
rhumerus -30.3918 -12.9316 -80.8417
rradius 38.4333
rwrist 3.10126
rhand -17.164 7.60077
rfingers 7.12502
rthumb 9.07713 -22.1839
lclavicle 3.41661e-015 9.13167e-015
lhumerus -40.7509 10.1123 81.9163
lradius 38.3455
lwrist -3.78469
lhand -17.0935 26.325
lfingers 7.12502
lthumb 9.14511 56.1067
rfemur -10.0028 3.47899 22.2895
rtibia 26.1728
rfoot -20.5184 4.32299
rtoes 6.10948
lfemur -25.4026 1.07405 -20.8036
ltibia 28.5148
lfoot -11.1968 4.92974
ltoes -25.1032
2931
root 16.5286 17.9614 -8.65908 892.468 -85.6748 -165.71
lowerback 11.6174 1.64039 -0.2637
upperback 2.69897 2.04461 0.169338
thorax -3.70245 0.970179 0.0295629
lowerneck -6.82359 -1.59418 -12.3751
upperneck 43.9319 -4.12311 3.31969
head 17.8256 -4.17396 2.85775
rclavicle 9.44538e-015 9.44227e-015
rhumerus -30.3237 -12.768 -80.5743
rradius 38.6373
rwrist 2.90988
rhand -17.1757 7.59215
rfingers 7.12502
rthumb 9.06576 -22.193
lclavicle 9.44538e-015 9.44227e-015
lhumerus -40.7877 9.76951 82.356
lradius 38.1789
lwrist -4.20733
lhand -18.0421 26.5741
lfingers 7.12502
lthumb 8.22972 56.3938
rfemur -10.159 3.02358 22.2532
rtibia 26.2704
rfoot -20.4647 4.55463
rtoes 6.89005
lfemur -25.406 1.56183 -20.9962
ltibia 28.458
lfoot -10.884 5.97032
ltoes -25.7243
2932
root 16.5754 17.962 -8.66809 889.764 -86.0334 -162.976
lowerback 11.6839 1.61194 -0.288133
upperback 2.71309 2.00529 0.22044
thorax -3.72682 0.950654 0.100567
lowerneck -6.70606 -1.75629 -12.0021
upperneck 43.8525 -4.35141 3.02913
head 17.7511 -4.23353 2.61787
rclavicle -3.53992e-014 5.40446e-015
rhumerus -30.3984 -13.3837 -80.2472
rradius 38.8363
rwrist 3.16118
rhand -17.0271 7.69237
rfingers 7.12502
rthumb 9.20922 -22.0865
lclavicle -3.53992e-014 5.40446e-015
lhumerus -40.7193 8.65464 82.8599
lradius 38.0327
lwrist -4.70828
lhand -17.5497 26.4283
lfingers 7.12502
lthumb 8.70485 56.2288
rfemur -10.3417 2.64623 22.4303
rtibia 26.3112
rfoot -20.3477 4.6209
rtoes 7.55267
lfemur -25.5373 2.296 -21.0433
ltibia 28.4761
lfoot -10.509 6.97261
ltoes -26.1105
2933
root 16.6172 17.968 -8.68396 884.456 -86.4664 -157.683
lowerback 11.7673 1.47733 -0.261241
upperback 2.73411 1.83453 0.346021
thorax -3.75308 0.86571 0.2394
lowerneck -6.76283 -1.75732 -12.0627
upperneck 43.9858 -4.39568 3.13132
head 17.8581 -4.25707 2.6692
rclavicle 2.37781e-014 -5.8921e-015
rhumerus -30.4479 -13.5318 -80.0225
rradius 39.0023
rwrist 3.0998
rhand -17.0114 7.71377
rfingers 7.12502
rthumb 9.22434 -22.0645
lclavicle 2.37781e-014 -5.8921e-015
lhumerus -40.8307 7.96549 83.2993
lradius 38.0698
lwrist -5.10562
lhand -16.7542 26.0982
lfingers 7.12502
lthumb 9.47254 55.8653
rfemur -10.4065 2.41365 22.7519
rtibia 26.3009
rfoot -20.2286 4.35499
rtoes 7.85699
lfemur -25.6463 3.20656 -20.9696
ltibia 28.5453
lfoot -10.2478 7.65484
ltoes -26.3281
2934
root 16.6537 17.9741 -8.70246 882.021 -87.0005 -155.381
lowerback 11.8942 1.3782 -0.464094
upperback 2.79852 1.67723 0.389047
thorax -3.76153 0.788289 0.419724
lowerneck -6.81818 -1.76747 -12.2229
upperneck 44.1366 -4.51119 3.42275
head 17.9948 -4.30381 2.81738
rclavicle 1.43622e-014 1.56294e-014
rhumerus -30.5607 -13.5086 -79.8886
rradius 39.2436
rwrist 2.49132
rhand -17.5855 7.52256
rfingers 7.12502
rthumb 8.67038 -22.2794
lclavicle 1.43622e-014 1.56294e-014
lhumerus -40.9519 7.43587 83.6375
lradius 38.1894
lwrist -5.60588
lhand -16.4368 25.9258
lfingers 7.12502
lthumb 9.77874 55.6787
rfemur -10.2772 2.23365 22.8067
rtibia 26.2243
rfoot -20.1607 3.73703
rtoes 6.58104
lfemur -25.6001 4.04141 -21.1578
ltibia 28.6959
lfoot -10.1141 8.37326
ltoes -26.3197
2935
root 16.6842 17.9738 -8.71698 879.496 -87.3964 -152.966
lowerback 11.9277 1.34111 -0.681142
upperback 2.85298 1.60172 0.436468
thorax -3.72956 0.751771 0.602605
lowerneck -6.70866 -1.81285 -12.1848
upperneck 44.0973 -4.63325 3.49446
head 17.9568 -4.33591 2.82615
rclavicle -1.5002e-015 -1.21383e-014
rhumerus -30.7026 -13.587 -79.6883
rradius 39.4297
rwrist 2.08545
rhand -18.1152 7.45189
rfingers 7.12502
rthumb 8.15916 -22.3706
lclavicle -1.5002e-015 -1.21383e-014
lhumerus -41.0126 6.85363 83.9353
lradius 38.2437
lwrist -6.22883
lhand -16.3533 26.1743
lfingers 7.12502
lthumb 9.85927 55.9234
rfemur -10.134 2.15868 22.8563
rtibia 26.0718
rfoot -20.0317 3.28466
rtoes 6.01446
lfemur -25.6016 4.86435 -21.3726
ltibia 28.9665
lfoot -9.58855 9.65106
ltoes -27.5687
